<svg xmlns="http://www.w3.org/2000/svg" width="1240" height="578" viewBox="0 0 1240 578" role="img" aria-label="Vận hành theo SLO: Prometheus tính SLI từ metric của vLLM, Traefik, kube-state-metrics và GPU; cảnh báo theo burn rate qua Alertmanager tới người trực; người trực làm theo runbook; mọi thay đổi đi qua Git và Argo CD" font-family="system-ui, -apple-system, 'Segoe UI', Roboto, 'Helvetica Neue', Arial, sans-serif">
<title>Vận hành theo SLO: Prometheus tính SLI từ metric của vLLM, Traefik, kube-state-metrics và GPU; cảnh báo theo burn rate qua Alertmanager tới người trực; người trực làm theo runbook; mọi thay đổi đi qua Git và Argo CD</title>
<defs><marker id="a4a3aa7" viewBox="0 0 10 10" refX="9" refY="5" markerUnits="userSpaceOnUse" markerWidth="10" markerHeight="10" orient="auto-start-reverse"><path d="M0,1 L10,5 L0,9 z" fill="#4a3aa7"/></marker><marker id="a52514e" viewBox="0 0 10 10" refX="9" refY="5" markerUnits="userSpaceOnUse" markerWidth="10" markerHeight="10" orient="auto-start-reverse"><path d="M0,1 L10,5 L0,9 z" fill="#52514e"/></marker><marker id="aeb6834" viewBox="0 0 10 10" refX="9" refY="5" markerUnits="userSpaceOnUse" markerWidth="10" markerHeight="10" orient="auto-start-reverse"><path d="M0,1 L10,5 L0,9 z" fill="#eb6834"/></marker><marker id="a2a78d6" viewBox="0 0 10 10" refX="9" refY="5" markerUnits="userSpaceOnUse" markerWidth="10" markerHeight="10" orient="auto-start-reverse"><path d="M0,1 L10,5 L0,9 z" fill="#2a78d6"/></marker></defs>
<rect x="0.5" y="0.5" width="1239" height="577" rx="14" fill="#fcfcfb" stroke="#e4e3de"/>
<text x="32" y="38" font-size="19" font-weight="700" fill="#0b0b0b" text-anchor="start">Vận hành theo SLO: từ metric tới cảnh báo và hành động</text>
<text x="32" y="61" font-size="13" font-weight="400" fill="#52514e" text-anchor="start">Mỗi cảnh báo trả lời ba câu: người dùng có bị ảnh hưởng không, gấp tới đâu, và làm gì tiếp theo</text>
<line x1="32" y1="88" x2="58" y2="88" stroke="#4a3aa7" stroke-width="2" stroke-dasharray="5 4" stroke-linecap="round"/>
<text x="65" y="92" font-size="12" font-weight="400" fill="#52514e" text-anchor="start">Metric</text>
<line x1="127" y1="88" x2="153" y2="88" stroke="#eb6834" stroke-width="2" stroke-linecap="round"/>
<text x="160" y="92" font-size="12" font-weight="400" fill="#52514e" text-anchor="start">Cảnh báo</text>
<line x1="236.4" y1="88" x2="262.4" y2="88" stroke="#2a78d6" stroke-width="2" stroke-linecap="round"/>
<text x="269.4" y="92" font-size="12" font-weight="400" fill="#52514e" text-anchor="start">Xử lý và thay đổi</text>
<text x="32" y="122" font-size="12" font-weight="700" fill="#52514e" text-anchor="start">NGUỒN SLI</text>
<text x="300" y="122" font-size="12" font-weight="700" fill="#52514e" text-anchor="start">PROMETHEUS</text>
<text x="608" y="122" font-size="12" font-weight="700" fill="#52514e" text-anchor="start">ALERTMANAGER</text>
<text x="906" y="122" font-size="12" font-weight="700" fill="#52514e" text-anchor="start">XỬ LÝ</text>
<rect x="32" y="134" width="220" height="54" rx="10" fill="#ffffff" stroke="#c3c2b7" stroke-width="1.2"/>
<text x="46" y="157.9" font-size="13" font-weight="650" fill="#0b0b0b" text-anchor="start">vLLM /metrics</text>
<text x="46" y="175.5" font-size="11.5" font-weight="400" fill="#52514e" text-anchor="start">TTFT, TPOT, hàng đợi</text>
<path d="M252,161 L300,161" fill="none" stroke="#4a3aa7" stroke-width="1.5" stroke-linejoin="round" stroke-linecap="round" stroke-dasharray="5 4" marker-end="url(#a4a3aa7)"/>
<rect x="32" y="200" width="220" height="54" rx="10" fill="#ffffff" stroke="#c3c2b7" stroke-width="1.2"/>
<text x="46" y="223.9" font-size="13" font-weight="650" fill="#0b0b0b" text-anchor="start">Traefik</text>
<text x="46" y="241.5" font-size="11.5" font-weight="400" fill="#52514e" text-anchor="start">số request, mã lỗi 5xx</text>
<path d="M252,227 L300,227" fill="none" stroke="#4a3aa7" stroke-width="1.5" stroke-linejoin="round" stroke-linecap="round" stroke-dasharray="5 4" marker-end="url(#a4a3aa7)"/>
<rect x="32" y="266" width="220" height="54" rx="10" fill="#ffffff" stroke="#c3c2b7" stroke-width="1.2"/>
<text x="46" y="289.9" font-size="13" font-weight="650" fill="#0b0b0b" text-anchor="start">kube-state-metrics</text>
<text x="46" y="307.5" font-size="11.5" font-weight="400" fill="#52514e" text-anchor="start">replicas, pod, HPA</text>
<path d="M252,293 L300,293" fill="none" stroke="#4a3aa7" stroke-width="1.5" stroke-linejoin="round" stroke-linecap="round" stroke-dasharray="5 4" marker-end="url(#a4a3aa7)"/>
<rect x="32" y="332" width="220" height="54" rx="10" fill="#ffffff" stroke="#c3c2b7" stroke-width="1.2"/>
<text x="46" y="355.9" font-size="13" font-weight="650" fill="#0b0b0b" text-anchor="start">DCGM · KEDA</text>
<text x="46" y="373.5" font-size="11.5" font-weight="400" fill="#52514e" text-anchor="start">nhiệt độ, XID, lỗi scaler</text>
<path d="M252,359 L300,359" fill="none" stroke="#4a3aa7" stroke-width="1.5" stroke-linejoin="round" stroke-linecap="round" stroke-dasharray="5 4" marker-end="url(#a4a3aa7)"/>
<rect x="300" y="134" width="260" height="252" rx="12" fill="#f2f0fa" stroke="#d6d1ef" stroke-width="1.2"/>
<rect x="316" y="150" width="228" height="92" rx="10" fill="#ffffff" stroke="#c3c2b7" stroke-width="1.2"/>
<text x="430" y="184.5" font-size="13" font-weight="650" fill="#0b0b0b" text-anchor="middle">Recording rule</text>
<text x="430" y="202.2" font-size="11.5" font-weight="400" fill="#52514e" text-anchor="middle">tỷ lệ request xấu</text>
<text x="430" y="218.9" font-size="11.5" font-weight="400" fill="#52514e" text-anchor="middle">theo cửa sổ 1, 5, 30 phút</text>
<rect x="316" y="278" width="228" height="92" rx="10" fill="#ffffff" stroke="#c3c2b7" stroke-width="1.2"/>
<text x="430" y="312.5" font-size="13" font-weight="650" fill="#0b0b0b" text-anchor="middle">Alert rule</text>
<text x="430" y="330.2" font-size="11.5" font-weight="400" fill="#52514e" text-anchor="middle">burn rate · năng lực · nền tảng</text>
<text x="430" y="346.9" font-size="11.5" font-weight="400" fill="#52514e" text-anchor="middle">có unit test (promtool)</text>
<path d="M430,242 L430,278" fill="none" stroke="#52514e" stroke-width="1.5" stroke-linejoin="round" stroke-linecap="round" marker-end="url(#a52514e)"/>
<rect x="608" y="134" width="250" height="252" rx="12" fill="#fdf3ee" stroke="#f3cdb9" stroke-width="1.2"/>
<rect x="624" y="150" width="218" height="92" rx="10" fill="#ffffff" stroke="#d03b3b" stroke-width="1.2"/>
<text x="733" y="184.5" font-size="13" font-weight="650" fill="#0b0b0b" text-anchor="middle">page</text>
<text x="733" y="202.2" font-size="11.5" font-weight="400" fill="#52514e" text-anchor="middle">người dùng đang bị ảnh hưởng</text>
<text x="733" y="218.9" font-size="11.5" font-weight="400" fill="#52514e" text-anchor="middle">→ Telegram của người trực</text>
<rect x="624" y="278" width="218" height="92" rx="10" fill="#ffffff" stroke="#fab219" stroke-width="1.2"/>
<text x="733" y="312.5" font-size="13" font-weight="650" fill="#0b0b0b" text-anchor="middle">ticket</text>
<text x="733" y="330.2" font-size="11.5" font-weight="400" fill="#52514e" text-anchor="middle">xử lý trong giờ làm việc</text>
<text x="733" y="346.9" font-size="11.5" font-weight="400" fill="#52514e" text-anchor="middle">→ Telegram, không nhắc lại</text>
<text x="733" y="264" font-size="11" font-weight="400" fill="#52514e" text-anchor="middle">gom nhóm · chặn trùng · silence</text>
<path d="M544,312 L576,312 Q584,312 584,304 L584,204 Q584,196 592,196 L624,196" fill="none" stroke="#eb6834" stroke-width="2" stroke-linejoin="round" stroke-linecap="round" marker-end="url(#aeb6834)"/>
<path d="M544,336 L624,336" fill="none" stroke="#eb6834" stroke-width="2" stroke-linejoin="round" stroke-linecap="round" marker-end="url(#aeb6834)"/>
<rect x="906" y="134" width="302" height="62" rx="10" fill="#ffffff" stroke="#c3c2b7" stroke-width="1.2"/>
<text x="1057" y="161.9" font-size="13" font-weight="650" fill="#0b0b0b" text-anchor="middle">Người trực</text>
<text x="1057" y="179.5" font-size="11.5" font-weight="400" fill="#52514e" text-anchor="middle">mở runbook từ link trong cảnh báo</text>
<rect x="906" y="222" width="302" height="76" rx="10" fill="#ffffff" stroke="#c3c2b7" stroke-width="1.2"/>
<text x="1057" y="248.5" font-size="13" font-weight="650" fill="#0b0b0b" text-anchor="middle">Runbook</text>
<text x="1057" y="266.2" font-size="11.5" font-weight="400" fill="#52514e" text-anchor="middle">docs/runbooks/&lt;cảnh báo&gt;.md:</text>
<text x="1057" y="282.9" font-size="11.5" font-weight="400" fill="#52514e" text-anchor="middle">ý nghĩa · chẩn đoán · xử lý · leo thang</text>
<rect x="906" y="322" width="302" height="64" rx="10" fill="#ffffff" stroke="#c3c2b7" stroke-width="1.2"/>
<text x="1057" y="342.5" font-size="13" font-weight="650" fill="#0b0b0b" text-anchor="middle">Hành động</text>
<text x="1057" y="360.2" font-size="11.5" font-weight="400" fill="#52514e" text-anchor="middle">chờ pod Ready · thắt giới hạn tốc độ</text>
<text x="1057" y="376.9" font-size="11.5" font-weight="400" fill="#52514e" text-anchor="middle">xoá pod · rollback bằng git revert</text>
<path d="M842,180 L866,180 Q874,180 874,172 L874,164 Q874,156 882,156 L906,156" fill="none" stroke="#eb6834" stroke-width="2" stroke-linejoin="round" stroke-linecap="round" marker-end="url(#aeb6834)"/>
<path d="M842,324 L880,324 Q888,324 888,316 L888,184 Q888,176 896,176 L906,176" fill="none" stroke="#eb6834" stroke-width="2" stroke-linejoin="round" stroke-linecap="round" marker-end="url(#aeb6834)"/>
<path d="M1057,196 L1057,222" fill="none" stroke="#2a78d6" stroke-width="1.8" stroke-linejoin="round" stroke-linecap="round" marker-end="url(#a2a78d6)"/>
<path d="M1057,298 L1057,322" fill="none" stroke="#2a78d6" stroke-width="1.8" stroke-linejoin="round" stroke-linecap="round" marker-end="url(#a2a78d6)"/>
<path d="M1057,386 L1057,432" fill="none" stroke="#2a78d6" stroke-width="1.8" stroke-linejoin="round" stroke-linecap="round" marker-end="url(#a2a78d6)"/>
<rect x="32" y="432" width="1176" height="64" rx="10" fill="#eef4fc" stroke="#c9dcf3" stroke-width="1.2"/>
<text x="46" y="460.9" font-size="13" font-weight="650" fill="#0b0b0b" text-anchor="start">Git + Argo CD</text>
<text x="46" y="478.5" font-size="11.5" font-weight="400" fill="#52514e" text-anchor="start">mọi thay đổi để xử lý đi qua PR: rollback, đổi ngưỡng cảnh báo, sửa runbook · sau sự cố: ghi nhật ký vận hành</text>
<path d="M430,432 L430,386" fill="none" stroke="#2a78d6" stroke-width="1.6" stroke-linejoin="round" stroke-linecap="round" stroke-dasharray="5 4" marker-end="url(#a2a78d6)"/>
<rect x="435" y="402" width="138.2" height="18" rx="4" fill="#fcfcfb"/>
<text x="440" y="414" font-size="11" font-weight="400" fill="#52514e" text-anchor="start">đổi ngưỡng, sửa quy tắc</text>
<text x="32" y="528" font-size="12" text-anchor="start"><tspan font-weight="650" fill="#0b0b0b">Ví dụ · LLMSLOBurnFast: </tspan><tspan font-weight="400" fill="#52514e">hơn 20% request chờ token đầu quá ngưỡng trên cả 5 phút và 1 phút → page → Telegram</tspan></text>
<text x="32" y="552" font-size="12" text-anchor="start"><tspan font-weight="650" fill="#0b0b0b">Runbook: </tspan><tspan font-weight="400" fill="#52514e">đang cold start? đã chạy tối đa replica? vừa cập nhật? → chờ pod Ready · thắt giới hạn tốc độ · git revert</tspan></text>
</svg>
